<svg width="716" height="468" viewBox="0 0 716 468" fill="none" xmlns="http://www.w3.org/2000/svg">
<g clip-path="url(#clip0_141_208)">
<path d="M354.34 79.5835C366.335 79.5835 376.059 69.876 376.059 57.9011C376.059 45.9262 366.335 36.2186 354.34 36.2186C342.344 36.2186 332.62 45.9262 332.62 57.9011C332.62 69.876 342.344 79.5835 354.34 79.5835Z" fill="#FD6584"/>
<path d="M402.903 47.5877C401.682 43.5273 398.103 40.5226 393.792 40.0354C393.711 40.0354 393.711 40.0354 393.629 40.0354C393.548 40.0354 393.548 40.0354 393.467 39.9542C386.227 38.9797 378.092 41.3347 372.642 46.2884C370.609 48.0749 368.982 50.3488 367.924 52.785C365.891 50.0239 362.555 48.3998 359.139 48.481C354.665 48.8058 350.76 51.8917 349.54 56.1957C349.377 56.7642 349.622 57.2514 350.11 57.5762C350.76 58.1447 351.574 58.5507 352.387 58.7132C354.177 59.1192 355.966 59.444 357.837 59.7689C361.417 60.4185 364.914 60.9058 368.575 61.3118C370.934 61.5554 373.293 61.799 375.733 61.8803C380.614 62.2051 385.576 62.2863 390.538 62.1239C392.978 62.0427 395.338 61.9615 397.534 60.9058C399.161 60.0937 400.544 58.8756 401.601 57.4138C403.391 54.5716 403.879 50.9172 402.903 47.5877Z" fill="#E6E6E6"/>
<path d="M358.244 79.1775C358.163 78.2842 358.081 77.3909 357.756 76.4976C356.536 72.4373 352.957 69.4326 348.645 68.9453C348.564 68.9453 348.564 68.9453 348.483 68.9453C348.401 68.9453 348.32 68.9453 348.32 68.8641C344.334 68.3769 340.185 68.7829 336.362 70.0822C330.424 72.0312 325.299 76.0104 322.778 81.6949C320.744 78.9339 317.409 77.3097 313.992 77.3909C309.518 77.7158 305.614 80.8017 304.394 85.1057C304.231 85.6741 304.475 86.1614 304.963 86.4862C305.614 87.0546 306.427 87.4607 307.241 87.6231C309.03 88.0291 310.82 88.354 312.691 88.6788C316.27 89.3285 319.768 89.8157 323.347 90.2217C330.587 91.0338 337.908 91.2774 345.229 91.0338C347.669 90.9526 350.028 90.8714 352.225 89.8157C353.851 89.0036 355.234 87.7855 356.21 86.3238C357.675 84.2936 358.407 81.7761 358.244 79.1775Z" fill="#E6E6E6"/>
<path d="M641.081 342.29C641.406 357.07 639.373 371.85 635.062 385.98C634.899 386.467 634.736 387.036 634.573 387.523H545.419C546.721 381.27 548.754 375.18 551.439 369.414C558.841 353.66 570.962 340.26 582.919 326.861C599.351 308.427 615.457 290.236 617.979 266.28C624.487 276.187 629.693 286.988 633.516 298.195C628.879 299.9 624.649 302.499 621.07 305.828C620.094 306.803 619.037 308.102 619.525 309.401C620.013 310.457 621.314 310.863 622.534 311.107C625.381 311.675 628.229 312.162 631.076 312.731C633.353 313.218 635.55 313.624 637.827 314.03C639.861 323.288 640.918 332.789 641.081 342.29Z" fill="#F2F2F2"/>
<path d="M716 332.546C701.683 341.235 692.654 354.634 685.252 369.657C678.825 371.119 672.806 374.286 668.006 378.753C666.949 379.727 665.891 381.027 666.461 382.326C666.949 383.382 668.25 383.788 669.471 384.031C672.318 384.6 675.165 385.087 678.012 385.655C677.768 386.305 677.442 386.955 677.198 387.604H582.594C586.905 381.839 591.623 376.398 596.829 371.444C597.968 370.307 599.107 369.251 600.246 368.196C612.285 357.314 626.114 348.625 641.081 342.453C664.753 332.464 690.62 329.054 716 332.546Z" fill="#F2F2F2"/>
<path d="M598.375 387.523H514.264C513.776 380.783 513.857 374.043 514.345 367.302C517.68 325.805 540.294 286.257 574.459 262.382C570.067 277.893 572.344 293.322 576.9 308.752C576.249 308.995 575.598 309.158 575.029 309.401C570.392 311.107 566.162 313.705 562.583 317.035C561.607 318.009 560.549 319.309 561.037 320.608C561.525 321.664 562.827 322.07 564.047 322.313C566.894 322.882 569.741 323.369 572.588 323.938C574.866 324.425 577.144 324.831 579.421 325.237C580.479 325.399 581.536 325.643 582.594 325.805C582.757 326.13 582.838 326.536 583.001 326.861C588.288 341.478 594.145 356.258 596.829 371.282C597.48 375.017 597.968 378.834 598.212 382.651C598.294 384.275 598.375 385.899 598.375 387.523Z" fill="#F2F2F2"/>
<path d="M139.995 342.29C140.32 357.07 138.287 371.85 133.975 385.98C133.813 386.467 133.65 387.036 133.487 387.523H44.3331C45.6347 381.27 47.6683 375.18 50.3527 369.414C57.7551 353.66 69.8755 340.26 81.8332 326.861C98.265 308.427 114.371 290.236 116.893 266.28C123.401 276.187 128.607 286.988 132.43 298.195C127.793 299.9 123.563 302.499 119.984 305.828C119.008 306.803 117.95 308.102 118.439 309.401C118.927 310.457 120.228 310.863 121.448 311.107C124.295 311.675 127.142 312.162 129.99 312.731C132.267 313.218 134.464 313.624 136.741 314.03C138.775 323.288 139.832 332.789 139.995 342.29Z" fill="#F2F2F2"/>
<path d="M214.914 332.546C200.597 341.235 191.568 354.634 184.165 369.657C177.739 371.119 171.72 374.286 166.92 378.753C165.863 379.727 164.805 381.027 165.375 382.326C165.863 383.382 167.164 383.788 168.384 384.031C171.232 384.6 174.079 385.087 176.926 385.655C176.682 386.305 176.356 386.955 176.112 387.604H81.5078C85.8191 381.839 90.5371 376.398 95.7432 371.444C96.882 370.307 98.0209 369.251 99.1597 368.196C111.199 357.314 125.027 348.625 139.995 342.453C163.666 332.464 189.534 329.054 214.914 332.546Z" fill="#F2F2F2"/>
<path d="M97.2888 387.523H13.1779C12.6898 380.783 12.7712 374.043 13.2592 367.302C16.5944 325.805 39.2083 286.257 73.3733 262.382C68.9807 277.893 71.2583 293.322 75.8136 308.752C75.1629 308.995 74.5121 309.158 73.9427 309.401C69.306 311.107 65.0761 313.705 61.4969 317.035C60.5208 318.009 59.4633 319.309 59.9513 320.608C60.4394 321.664 61.7409 322.07 62.9611 322.313C65.8082 322.882 68.6553 323.369 71.5024 323.938C73.78 324.425 76.0577 324.831 78.3354 325.237C79.3928 325.399 80.4503 325.643 81.5078 325.805C81.6705 326.13 81.7518 326.536 81.9145 326.861C87.202 341.478 93.0588 356.258 95.7432 371.282C96.394 375.017 96.882 378.834 97.1261 382.651C97.2074 384.275 97.2888 385.899 97.2888 387.523Z" fill="#F2F2F2"/>
<path d="M410.305 352.279L485.468 358.938L486.281 359.019V38.8985C486.037 38.7361 485.712 38.4925 485.468 38.3301C469.768 27.367 452.848 18.4342 435.034 11.6127L431.129 64.4789L430.804 69.3514L426.981 121.812L425.842 137.972L410.468 350.492L410.305 352.279Z" fill="#E6E6E6"/>
<path d="M224.513 32.9703C223.943 33.2952 223.455 33.62 222.886 34.026V359.019L224.513 358.857L298.862 352.279L298.699 350.411L283.325 137.891L282.186 121.73L278.363 69.2702L278.038 64.3977L273.97 8.93286C256.563 15.0234 239.968 23.063 224.513 32.9703Z" fill="#E6E6E6"/>
<path d="M222.886 34.026C221.828 34.7569 220.689 35.4066 219.632 36.1374V363.405C219.632 371.606 224.513 378.428 231.02 380.215C232.078 380.539 233.135 380.621 234.274 380.621H475.706C476.764 380.621 477.903 380.458 478.96 380.215C481.401 379.565 483.597 378.266 485.305 376.398C488.64 372.906 490.43 368.196 490.348 363.405V41.822C489.047 40.8475 487.664 39.873 486.281 38.8985C486.037 38.7361 485.712 38.4925 485.468 38.33V363.405C485.468 364.46 485.305 365.516 485.061 366.49C483.922 371.363 480.099 374.855 475.706 374.855H234.274C228.905 374.855 224.513 369.739 224.513 363.323V32.9703C223.943 33.2952 223.455 33.62 222.886 34.026Z" fill="#E6E6E6"/>
<path d="M487.908 64.4789H222.072V69.3514H487.908V64.4789Z" fill="#E6E6E6"/>
<path d="M406.482 2.76105C404.855 2.35501 403.228 2.03018 401.601 1.62415V133.018H406.482V2.76105Z" fill="#E6E6E6"/>
<path d="M308.298 0C306.671 0.324831 305.044 0.649662 303.417 0.974492V133.099H308.298V0Z" fill="#E6E6E6"/>
<path d="M169.93 372.175C169.93 374.936 170.499 377.697 171.476 380.296C171.882 381.27 172.37 382.245 172.94 383.219C173.672 384.437 174.485 385.574 175.38 386.63C179.529 391.34 185.467 394.02 191.731 394.02H510.034C522.073 394.02 531.835 384.275 531.835 372.256C531.835 360.237 522.073 350.492 510.034 350.492H191.812C179.773 350.411 170.011 360.156 169.93 372.175Z" fill="#E6E6E6"/>
<path d="M486.281 121.73H222.072V137.891H486.281V121.73Z" fill="#E6E6E6"/>
<path d="M365.484 125.791H342.87C342.87 120.918 346.856 116.939 351.736 116.939H356.617C361.498 116.939 365.484 120.918 365.484 125.791Z" fill="#E6E6E6"/>
<path d="M0 384.6C7.07703 392.964 14.7235 400.841 22.858 408.15H678.988C687.122 400.841 694.769 392.964 701.846 384.6H0Z" fill="#3F3D56"/>
<path d="M322.696 305.991V389.31H381.102V305.991C381.102 304.772 380.289 303.636 379.15 303.311C378.906 303.23 378.58 303.148 378.336 303.148H325.543C323.916 303.148 322.696 304.448 322.696 305.991ZM345.473 334.576C345.473 331.165 348.32 328.404 351.736 328.404C355.153 328.404 357.919 331.165 357.919 334.576V344.239C357.919 347.65 355.072 350.492 351.655 350.411C348.239 350.411 345.473 347.65 345.473 344.239V334.576Z" fill="#2F2E41"/>
<path d="M322.533 386.63V394.669C322.533 395.563 323.266 396.212 324.079 396.212H379.719C380.614 396.212 381.265 395.482 381.265 394.669V386.63H322.533Z" fill="#3F3D56"/>
<path d="M230.776 180.525V332.627C230.776 336.687 234.03 339.935 238.097 339.935H463.83C467.897 339.935 471.151 336.687 471.151 332.627V180.525C471.151 176.464 467.897 173.216 463.83 173.216H238.097C234.03 173.216 230.776 176.464 230.776 180.525Z" fill="#3F3D56"/>
<path d="M236.064 182.392V330.678C236.064 332.87 237.853 334.576 239.968 334.576H461.959C464.155 334.576 465.864 332.789 465.864 330.678V182.392C465.864 180.2 464.074 178.495 461.959 178.495H239.968C237.772 178.495 236.064 180.281 236.064 182.392Z" fill="#4424CB"/>
<path d="M281.292 398.08C281.78 398.649 282.43 398.973 283.162 398.973H415.186C416.487 398.973 417.626 397.918 417.626 396.537C417.626 396.375 417.626 396.212 417.545 396.05L415.511 386.305C415.348 385.493 414.779 384.843 413.965 384.519C413.721 384.437 413.396 384.356 413.071 384.356H285.196C284.871 384.356 284.627 384.437 284.301 384.519C283.569 384.843 283 385.493 282.756 386.305L280.722 396.05C280.641 396.781 280.803 397.512 281.292 398.08Z" fill="#2F2E41"/>
<path d="M411.85 388.66H408.597C408.353 388.66 408.19 388.498 408.19 388.254V386.63C408.19 386.386 408.353 386.224 408.597 386.224H411.85C412.095 386.224 412.257 386.386 412.257 386.63V388.254C412.257 388.416 412.095 388.66 411.85 388.66Z" fill="#3F3D56"/>
<path d="M403.716 388.66H400.462C400.218 388.66 400.055 388.498 400.055 388.254V386.63C400.055 386.386 400.218 386.224 400.462 386.224H403.716C403.96 386.224 404.123 386.386 404.123 386.63V388.254C404.123 388.416 403.96 388.66 403.716 388.66Z" fill="#3F3D56"/>
<path d="M395.581 388.66H392.328C392.084 388.66 391.921 388.498 391.921 388.254V386.63C391.921 386.386 392.084 386.224 392.328 386.224H395.581C395.825 386.224 395.988 386.386 395.988 386.63V388.254C395.988 388.416 395.825 388.66 395.581 388.66Z" fill="#3F3D56"/>
<path d="M387.447 388.66H384.193C383.949 388.66 383.786 388.498 383.786 388.254V386.63C383.786 386.386 383.949 386.224 384.193 386.224H387.447C387.691 386.224 387.854 386.386 387.854 386.63V388.254C387.854 388.416 387.691 388.66 387.447 388.66Z" fill="#3F3D56"/>
<path d="M379.312 388.66H376.059C375.815 388.66 375.652 388.498 375.652 388.254V386.63C375.652 386.386 375.815 386.224 376.059 386.224H379.312C379.556 386.224 379.719 386.386 379.719 386.63V388.254C379.719 388.416 379.556 388.66 379.312 388.66Z" fill="#3F3D56"/>
<path d="M371.178 388.66H367.924C367.68 388.66 367.517 388.498 367.517 388.254V386.63C367.517 386.386 367.68 386.224 367.924 386.224H371.178C371.422 386.224 371.585 386.386 371.585 386.63V388.254C371.585 388.416 371.422 388.66 371.178 388.66Z" fill="#3F3D56"/>
<path d="M363.043 388.66H359.79C359.546 388.66 359.383 388.498 359.383 388.254V386.63C359.383 386.386 359.546 386.224 359.79 386.224H363.043C363.287 386.224 363.45 386.386 363.45 386.63V388.254C363.45 388.416 363.287 388.66 363.043 388.66Z" fill="#3F3D56"/>
<path d="M354.909 388.66H351.655C351.411 388.66 351.248 388.498 351.248 388.254V386.63C351.248 386.386 351.411 386.224 351.655 386.224H354.909C355.153 386.224 355.316 386.386 355.316 386.63V388.254C355.316 388.416 355.153 388.66 354.909 388.66Z" fill="#3F3D56"/>
<path d="M346.774 388.66H343.52C343.276 388.66 343.114 388.498 343.114 388.254V386.63C343.114 386.386 343.276 386.224 343.52 386.224H346.774C347.018 386.224 347.181 386.386 347.181 386.63V388.254C347.181 388.416 347.018 388.66 346.774 388.66Z" fill="#3F3D56"/>
<path d="M338.64 388.66H335.386C335.142 388.66 334.979 388.498 334.979 388.254V386.63C334.979 386.386 335.142 386.224 335.386 386.224H338.64C338.884 386.224 339.047 386.386 339.047 386.63V388.254C339.047 388.416 338.884 388.66 338.64 388.66Z" fill="#3F3D56"/>
<path d="M330.505 388.66H327.251C327.007 388.66 326.845 388.498 326.845 388.254V386.63C326.845 386.386 327.007 386.224 327.251 386.224H330.505C330.749 386.224 330.912 386.386 330.912 386.63V388.254C330.912 388.416 330.749 388.66 330.505 388.66Z" fill="#3F3D56"/>
<path d="M322.371 388.66H319.117C318.873 388.66 318.71 388.498 318.71 388.254V386.63C318.71 386.386 318.873 386.224 319.117 386.224H322.371C322.615 386.224 322.777 386.386 322.777 386.63V388.254C322.777 388.416 322.615 388.66 322.371 388.66Z" fill="#3F3D56"/>
<path d="M314.236 388.66H310.983C310.738 388.66 310.576 388.498 310.576 388.254V386.63C310.576 386.386 310.738 386.224 310.983 386.224H314.236C314.48 386.224 314.643 386.386 314.643 386.63V388.254C314.643 388.416 314.48 388.66 314.236 388.66Z" fill="#3F3D56"/>
<path d="M306.102 388.66H302.848C302.604 388.66 302.441 388.498 302.441 388.254V386.63C302.441 386.386 302.604 386.224 302.848 386.224H306.102C306.346 386.224 306.509 386.386 306.509 386.63V388.254C306.509 388.416 306.346 388.66 306.102 388.66Z" fill="#3F3D56"/>
<path d="M297.967 388.66H294.713C294.469 388.66 294.307 388.498 294.307 388.254V386.63C294.307 386.386 294.469 386.224 294.713 386.224H297.967C298.211 386.224 298.374 386.386 298.374 386.63V388.254C298.374 388.416 298.211 388.66 297.967 388.66Z" fill="#3F3D56"/>
<path d="M289.833 388.66H286.579C286.335 388.66 286.172 388.498 286.172 388.254V386.63C286.172 386.386 286.335 386.224 286.579 386.224H289.833C290.077 386.224 290.239 386.386 290.239 386.63V388.254C290.239 388.416 290.077 388.66 289.833 388.66Z" fill="#3F3D56"/>
<path d="M411.932 392.72H408.678C408.434 392.72 408.271 392.558 408.271 392.314V390.69C408.271 390.447 408.434 390.284 408.678 390.284H411.932C412.176 390.284 412.338 390.447 412.338 390.69V392.314C412.338 392.477 412.176 392.72 411.932 392.72Z" fill="#3F3D56"/>
<path d="M403.797 392.72H400.543C400.299 392.72 400.137 392.558 400.137 392.314V390.69C400.137 390.447 400.299 390.284 400.543 390.284H403.797C404.041 390.284 404.204 390.447 404.204 390.69V392.314C404.204 392.477 404.041 392.72 403.797 392.72Z" fill="#3F3D56"/>
<path d="M395.663 392.72H392.409C392.165 392.72 392.002 392.558 392.002 392.314V390.69C392.002 390.447 392.165 390.284 392.409 390.284H395.663C395.907 390.284 396.069 390.447 396.069 390.69V392.314C396.069 392.477 395.907 392.72 395.663 392.72Z" fill="#3F3D56"/>
<path d="M387.528 392.72H384.274C384.03 392.72 383.868 392.558 383.868 392.314V390.69C383.868 390.447 384.03 390.284 384.274 390.284H387.528C387.772 390.284 387.935 390.447 387.935 390.69V392.314C387.935 392.477 387.772 392.72 387.528 392.72Z" fill="#3F3D56"/>
<path d="M379.394 392.72H376.14C375.896 392.72 375.733 392.558 375.733 392.314V390.69C375.733 390.447 375.896 390.284 376.14 390.284H379.394C379.638 390.284 379.801 390.447 379.801 390.69V392.314C379.801 392.477 379.638 392.72 379.394 392.72Z" fill="#3F3D56"/>
<path d="M371.259 392.72H368.005C367.761 392.72 367.599 392.558 367.599 392.314V390.69C367.599 390.447 367.761 390.284 368.005 390.284H371.259C371.503 390.284 371.666 390.447 371.666 390.69V392.314C371.666 392.477 371.503 392.72 371.259 392.72Z" fill="#3F3D56"/>
<path d="M363.125 392.72H359.871C359.627 392.72 359.464 392.558 359.464 392.314V390.69C359.464 390.447 359.627 390.284 359.871 390.284H363.125C363.369 390.284 363.531 390.447 363.531 390.69V392.314C363.531 392.477 363.369 392.72 363.125 392.72Z" fill="#3F3D56"/>
<path d="M354.99 392.72H351.736C351.492 392.72 351.33 392.558 351.33 392.314V390.69C351.33 390.447 351.492 390.284 351.736 390.284H354.99C355.234 390.284 355.397 390.447 355.397 390.69V392.314C355.397 392.477 355.234 392.72 354.99 392.72Z" fill="#3F3D56"/>
<path d="M346.856 392.72H343.602C343.358 392.72 343.195 392.558 343.195 392.314V390.69C343.195 390.447 343.358 390.284 343.602 390.284H346.856C347.1 390.284 347.262 390.447 347.262 390.69V392.314C347.262 392.477 347.1 392.72 346.856 392.72Z" fill="#3F3D56"/>
<path d="M338.721 392.72H335.467C335.223 392.72 335.061 392.558 335.061 392.314V390.69C335.061 390.447 335.223 390.284 335.467 390.284H338.721C338.965 390.284 339.128 390.447 339.128 390.69V392.314C339.128 392.477 338.965 392.72 338.721 392.72Z" fill="#3F3D56"/>
<path d="M330.587 392.72H327.333C327.089 392.72 326.926 392.558 326.926 392.314V390.69C326.926 390.447 327.089 390.284 327.333 390.284H330.587C330.831 390.284 330.993 390.447 330.993 390.69V392.314C330.993 392.477 330.831 392.72 330.587 392.72Z" fill="#3F3D56"/>
<path d="M322.452 392.72H319.198C318.954 392.72 318.792 392.558 318.792 392.314V390.69C318.792 390.447 318.954 390.284 319.198 390.284H322.452C322.696 390.284 322.859 390.447 322.859 390.69V392.314C322.859 392.477 322.696 392.72 322.452 392.72Z" fill="#3F3D56"/>
<path d="M314.318 392.72H311.064C310.82 392.72 310.657 392.558 310.657 392.314V390.69C310.657 390.447 310.82 390.284 311.064 390.284H314.318C314.562 390.284 314.724 390.447 314.724 390.69V392.314C314.724 392.477 314.562 392.72 314.318 392.72Z" fill="#3F3D56"/>
<path d="M306.183 392.72H302.929C302.685 392.72 302.523 392.558 302.523 392.314V390.69C302.523 390.447 302.685 390.284 302.929 390.284H306.183C306.427 390.284 306.59 390.447 306.59 390.69V392.314C306.59 392.477 306.427 392.72 306.183 392.72Z" fill="#3F3D56"/>
<path d="M298.049 392.72H294.795C294.551 392.72 294.388 392.558 294.388 392.314V390.69C294.388 390.447 294.551 390.284 294.795 390.284H298.049C298.293 390.284 298.455 390.447 298.455 390.69V392.314C298.455 392.477 298.293 392.72 298.049 392.72Z" fill="#3F3D56"/>
<path d="M289.914 392.72H286.66C286.416 392.72 286.254 392.558 286.254 392.314V390.69C286.254 390.447 286.416 390.284 286.66 390.284H289.914C290.158 390.284 290.321 390.447 290.321 390.69V392.314C290.321 392.477 290.158 392.72 289.914 392.72Z" fill="#3F3D56"/>
<path d="M372.886 397.593H341.162C340.918 397.593 340.755 397.431 340.755 397.187V395.563C340.755 395.319 340.918 395.157 341.162 395.157H372.886C373.13 395.157 373.293 395.319 373.293 395.563V397.187C373.293 397.349 373.13 397.593 372.886 397.593Z" fill="#3F3D56"/>
<path d="M251.113 198.878H458.787C459.275 198.878 459.6 198.472 459.6 198.066C459.6 197.66 459.275 197.254 458.787 197.254H251.113C250.624 197.254 250.299 197.66 250.299 198.066C250.299 198.553 250.624 198.878 251.113 198.878Z" fill="#3F3D56"/>
<path d="M444.633 193.031C447.328 193.031 449.513 190.813 449.513 188.077C449.513 185.341 447.328 183.123 444.633 183.123C441.937 183.123 439.752 185.341 439.752 188.077C439.752 190.813 441.937 193.031 444.633 193.031Z" fill="#3F3D56"/>
<path d="M427.957 193.031C430.652 193.031 432.837 190.813 432.837 188.077C432.837 185.341 430.652 183.123 427.957 183.123C425.261 183.123 423.076 185.341 423.076 188.077C423.076 190.813 425.261 193.031 427.957 193.031Z" fill="#3F3D56"/>
<path d="M411.2 193.031C413.895 193.031 416.08 190.813 416.08 188.077C416.08 185.341 413.895 183.123 411.2 183.123C408.504 183.123 406.319 185.341 406.319 188.077C406.319 190.813 408.504 193.031 411.2 193.031Z" fill="#3F3D56"/>
<path d="M260.304 185.316C260.304 185.803 260.711 186.209 261.199 186.209H273.076C273.564 186.209 273.97 185.803 273.97 185.316C273.97 184.829 273.564 184.423 273.076 184.423H261.199C260.711 184.423 260.304 184.829 260.304 185.316Z" fill="#3F3D56"/>
<path d="M260.304 188.645C260.304 189.133 260.711 189.539 261.199 189.539H273.076C273.564 189.539 273.97 189.133 273.97 188.645C273.97 188.158 273.564 187.752 273.076 187.752H261.199C260.711 187.752 260.304 188.158 260.304 188.645Z" fill="#3F3D56"/>
<path d="M260.304 192.056C260.304 192.543 260.711 192.95 261.199 192.95H273.076C273.564 192.95 273.97 192.543 273.97 192.056C273.97 191.569 273.564 191.163 273.076 191.163H261.199C260.711 191.163 260.304 191.569 260.304 192.056Z" fill="#3F3D56"/>
<path d="M259.654 218.043H263.884C265.185 218.043 266.243 219.098 266.243 220.398C266.243 221.697 265.185 222.753 263.884 222.753H259.654C258.352 222.753 257.295 221.697 257.295 220.398C257.376 219.098 258.434 218.043 259.654 218.043Z" fill="#E6E6E6"/>
<path d="M308.461 218.043H312.691C313.992 218.043 315.05 219.098 315.05 220.398C315.05 221.697 313.992 222.753 312.691 222.753H308.461C307.159 222.753 306.102 221.697 306.102 220.398C306.183 219.098 307.241 218.043 308.461 218.043Z" fill="#E6E6E6"/>
<path d="M322.289 218.043H326.519C327.821 218.043 328.878 219.098 328.878 220.398C328.878 221.697 327.821 222.753 326.519 222.753H322.289C320.988 222.753 319.93 221.697 319.93 220.398C320.012 219.098 321.069 218.043 322.289 218.043Z" fill="#E6E6E6"/>
<path d="M272.994 217.718H299.513C300.814 217.718 301.872 218.774 301.872 220.073C301.872 221.372 300.814 222.428 299.513 222.428H272.994C271.693 222.428 270.635 221.372 270.635 220.073C270.635 218.774 271.693 217.718 272.994 217.718Z" fill="#E6E6E6"/>
<path d="M338.07 217.718H364.589C365.89 217.718 366.948 218.774 366.948 220.073C366.948 221.372 365.89 222.428 364.589 222.428H338.07C336.769 222.428 335.711 221.372 335.711 220.073C335.711 218.774 336.769 217.718 338.07 217.718Z" fill="#E6E6E6"/>
<path d="M272.669 228.6H276.899C278.2 228.6 279.258 229.655 279.258 230.955C279.258 232.254 278.2 233.31 276.899 233.31H272.669C271.367 233.31 270.31 232.254 270.31 230.955C270.391 229.655 271.449 228.6 272.669 228.6Z" fill="#E6E6E6"/>
<path d="M321.476 228.6H325.706C327.007 228.6 328.065 229.655 328.065 230.955C328.065 232.254 327.007 233.31 325.706 233.31H321.476C320.174 233.31 319.117 232.254 319.117 230.955C319.198 229.655 320.256 228.6 321.476 228.6Z" fill="#E6E6E6"/>
<path d="M335.305 228.6H339.535C340.836 228.6 341.894 229.655 341.894 230.955C341.894 232.254 340.836 233.31 339.535 233.31H335.305C334.003 233.31 332.946 232.254 332.946 230.955C333.027 229.655 334.085 228.6 335.305 228.6Z" fill="#E6E6E6"/>
<path d="M286.01 228.275H312.528C313.83 228.275 314.887 229.331 314.887 230.63C314.887 231.929 313.83 232.985 312.528 232.985H286.01C284.708 232.985 283.651 231.929 283.651 230.63C283.651 229.331 284.708 228.275 286.01 228.275Z" fill="#E6E6E6"/>
<path d="M351.086 228.275H377.604C378.906 228.275 379.963 229.331 379.963 230.63C379.963 231.929 378.906 232.985 377.604 232.985H351.086C349.784 232.985 348.727 231.929 348.727 230.63C348.727 229.331 349.784 228.275 351.086 228.275Z" fill="#E6E6E6"/>
<path d="M285.684 239.157H289.914C291.216 239.157 292.273 240.212 292.273 241.512C292.273 242.811 291.216 243.867 289.914 243.867H285.684C284.383 243.867 283.325 242.811 283.325 241.512C283.407 240.212 284.464 239.157 285.684 239.157Z" fill="#E6E6E6"/>
<path d="M334.491 239.157H338.721C340.023 239.157 341.08 240.212 341.08 241.512C341.08 242.811 340.023 243.867 338.721 243.867H334.491C333.19 243.867 332.132 242.811 332.132 241.512C332.214 240.212 333.271 239.157 334.491 239.157Z" fill="#E6E6E6"/>
<path d="M348.32 239.157H352.55C353.851 239.157 354.909 240.212 354.909 241.512C354.909 242.811 353.851 243.867 352.55 243.867H348.32C347.018 243.867 345.961 242.811 345.961 241.512C346.042 240.212 347.1 239.157 348.32 239.157Z" fill="#E6E6E6"/>
<path d="M299.025 238.832H325.543C326.845 238.832 327.902 239.888 327.902 241.187C327.902 242.486 326.845 243.542 325.543 243.542H299.025C297.723 243.542 296.666 242.486 296.666 241.187C296.666 239.888 297.723 238.832 299.025 238.832Z" fill="#E6E6E6"/>
<path d="M364.101 238.832H390.619C391.921 238.832 392.978 239.888 392.978 241.187C392.978 242.486 391.921 243.542 390.619 243.542H364.101C362.799 243.542 361.742 242.486 361.742 241.187C361.742 239.888 362.799 238.832 364.101 238.832Z" fill="#E6E6E6"/>
<path d="M298.699 249.714H302.929C304.231 249.714 305.288 250.769 305.288 252.069C305.288 253.368 304.231 254.424 302.929 254.424H298.699C297.398 254.424 296.34 253.368 296.34 252.069C296.422 250.769 297.479 249.714 298.699 249.714Z" fill="#E6E6E6"/>
<path d="M347.506 249.714H351.736C353.038 249.714 354.095 250.769 354.095 252.069C354.095 253.368 353.038 254.424 351.736 254.424H347.506C346.205 254.424 345.147 253.368 345.147 252.069C345.229 250.769 346.286 249.714 347.506 249.714Z" fill="#E6E6E6"/>
<path d="M361.335 249.714H365.565C366.867 249.714 367.924 250.769 367.924 252.069C367.924 253.368 366.867 254.424 365.565 254.424H361.335C360.034 254.424 358.976 253.368 358.976 252.069C359.057 250.769 360.115 249.714 361.335 249.714Z" fill="#E6E6E6"/>
<path d="M312.04 249.389H338.559C339.86 249.389 340.918 250.445 340.918 251.744C340.918 253.043 339.86 254.099 338.559 254.099H312.04C310.739 254.099 309.681 253.043 309.681 251.744C309.681 250.445 310.739 249.389 312.04 249.389Z" fill="#E6E6E6"/>
<path d="M308.461 291.698H312.691C313.992 291.698 315.05 292.754 315.05 294.053C315.05 295.352 313.992 296.408 312.691 296.408H308.461C307.159 296.408 306.102 295.352 306.102 294.053C306.183 292.754 307.241 291.698 308.461 291.698Z" fill="#E6E6E6"/>
<path d="M322.289 291.698H326.519C327.821 291.698 328.878 292.754 328.878 294.053C328.878 295.352 327.821 296.408 326.519 296.408H322.289C320.988 296.408 319.93 295.352 319.93 294.053C320.012 292.754 321.069 291.698 322.289 291.698Z" fill="#E6E6E6"/>
<path d="M338.07 292.104H364.589C365.89 292.104 366.948 293.16 366.948 294.459C366.948 295.758 365.89 296.814 364.589 296.814H338.07C336.769 296.814 335.711 295.758 335.711 294.459C335.711 293.16 336.769 292.104 338.07 292.104Z" fill="#E6E6E6"/>
<path d="M259.654 291.698H263.884C265.185 291.698 266.243 292.754 266.243 294.053C266.243 295.352 265.185 296.408 263.884 296.408H259.654C258.352 296.408 257.295 295.352 257.295 294.053C257.376 292.754 258.434 291.698 259.654 291.698Z" fill="#E6E6E6"/>
<path d="M272.994 292.104H299.513C300.814 292.104 301.872 293.16 301.872 294.459C301.872 295.758 300.814 296.814 299.513 296.814H272.994C271.693 296.814 270.635 295.758 270.635 294.459C270.635 293.16 271.693 292.104 272.994 292.104Z" fill="#E6E6E6"/>
<path d="M272.669 281.141H276.899C278.2 281.141 279.258 282.197 279.258 283.496C279.258 284.795 278.2 285.851 276.899 285.851H272.669C271.367 285.851 270.31 284.795 270.31 283.496C270.391 282.197 271.449 281.141 272.669 281.141Z" fill="#E6E6E6"/>
<path d="M321.476 281.141H325.706C327.007 281.141 328.065 282.197 328.065 283.496C328.065 284.795 327.007 285.851 325.706 285.851H321.476C320.174 285.851 319.117 284.795 319.117 283.496C319.198 282.197 320.256 281.141 321.476 281.141Z" fill="#E6E6E6"/>
<path d="M335.305 281.141H339.535C340.836 281.141 341.894 282.197 341.894 283.496C341.894 284.795 340.836 285.851 339.535 285.851H335.305C334.003 285.851 332.946 284.795 332.946 283.496C333.027 282.197 334.085 281.141 335.305 281.141Z" fill="#E6E6E6"/>
<path d="M286.01 281.547H312.528C313.83 281.547 314.887 282.603 314.887 283.902C314.887 285.201 313.83 286.257 312.528 286.257H286.01C284.708 286.257 283.651 285.201 283.651 283.902C283.651 282.603 284.708 281.547 286.01 281.547Z" fill="#E6E6E6"/>
<path d="M285.684 270.584H289.914C291.216 270.584 292.273 271.64 292.273 272.939C292.273 274.238 291.216 275.294 289.914 275.294H285.684C284.383 275.294 283.325 274.238 283.325 272.939C283.407 271.64 284.464 270.584 285.684 270.584Z" fill="#E6E6E6"/>
<path d="M334.491 270.584H338.721C340.023 270.584 341.08 271.64 341.08 272.939C341.08 274.238 340.023 275.294 338.721 275.294H334.491C333.19 275.294 332.132 274.238 332.132 272.939C332.214 271.64 333.271 270.584 334.491 270.584Z" fill="#E6E6E6"/>
<path d="M348.32 270.584H352.55C353.851 270.584 354.909 271.64 354.909 272.939C354.909 274.238 353.851 275.294 352.55 275.294H348.32C347.018 275.294 345.961 274.238 345.961 272.939C346.042 271.64 347.1 270.584 348.32 270.584Z" fill="#E6E6E6"/>
<path d="M299.025 270.99H325.543C326.845 270.99 327.902 272.046 327.902 273.345C327.902 274.644 326.845 275.7 325.543 275.7H299.025C297.723 275.7 296.666 274.644 296.666 273.345C296.666 272.046 297.723 270.99 299.025 270.99Z" fill="#E6E6E6"/>
<path d="M298.699 260.027H302.929C304.231 260.027 305.288 261.083 305.288 262.382C305.288 263.681 304.231 264.737 302.929 264.737H298.699C297.398 264.737 296.34 263.681 296.34 262.382C296.422 261.083 297.479 260.027 298.699 260.027Z" fill="#E6E6E6"/>
<path d="M347.506 260.027H351.736C353.038 260.027 354.095 261.083 354.095 262.382C354.095 263.681 353.038 264.737 351.736 264.737H347.506C346.205 264.737 345.147 263.681 345.147 262.382C345.229 261.083 346.286 260.027 347.506 260.027Z" fill="#E6E6E6"/>
<path d="M361.335 260.027H365.565C366.867 260.027 367.924 261.083 367.924 262.382C367.924 263.681 366.867 264.737 365.565 264.737H361.335C360.034 264.737 358.976 263.681 358.976 262.382C359.057 261.083 360.115 260.027 361.335 260.027Z" fill="#E6E6E6"/>
<path d="M312.04 260.433H338.559C339.86 260.433 340.918 261.489 340.918 262.788C340.918 264.087 339.86 265.143 338.559 265.143H312.04C310.739 265.143 309.681 264.087 309.681 262.788C309.681 261.489 310.739 260.433 312.04 260.433Z" fill="#E6E6E6"/>
<path d="M284.627 443.394C284.464 443.475 284.301 443.557 284.057 443.638C282.918 444.206 281.78 444.775 280.641 445.262C277.224 446.886 273.726 448.429 270.229 449.891C260.955 453.789 251.438 457.037 241.758 459.636C240.131 449.485 238.585 425.61 237.04 408.069C236.796 404.739 236.47 401.653 236.226 398.973C235.982 395.4 235.413 391.827 234.681 388.335C234.599 388.092 234.518 387.767 234.355 387.523C234.518 388.904 234.681 393.127 234.843 398.892C234.925 401.572 235.006 404.658 235.087 407.988C235.494 424.879 235.901 447.942 236.308 461.016C235.169 461.26 234.03 461.585 232.891 461.828C232.159 461.991 231.427 462.153 230.695 462.315C229.8 462.478 228.905 462.722 228.092 462.884C227.197 463.046 226.221 463.29 225.326 463.452C210.277 466.376 195.066 467.838 179.691 467.838C178.715 467.838 177.658 467.838 176.682 467.838C176.356 467.838 176.031 467.838 175.787 467.838C174.892 467.838 173.997 467.838 173.021 467.756C154.963 467.269 136.985 464.671 119.496 460.042L120.228 407.988L120.309 398.892L120.391 395.482C119.984 396.618 119.74 397.755 119.659 398.892C119.333 401.085 119.089 404.252 118.764 407.988C117.625 422.443 116.486 445.668 115.347 458.905C101.275 454.926 91.0252 451.271 78.1727 444.856C77.6846 444.612 77.1966 444.369 76.7085 444.125C76.7898 443.475 76.8712 442.907 76.9525 442.257C78.4167 432.187 76.7085 419.032 78.3354 407.988C79.5556 399.542 80.8571 391.34 82.0773 384.437C83.6228 376.154 85.1684 369.576 86.7139 366.409C88.5035 362.755 90.2931 359.101 92.0014 355.69C92.7335 354.228 93.4656 352.766 94.1977 351.305C94.6044 350.492 95.0111 349.762 95.3365 349.031C97.0448 345.62 98.753 342.453 100.217 339.692C101.275 337.743 102.251 335.956 103.146 334.413C104.203 332.627 105.098 331.084 105.911 329.947C111.524 321.42 119.984 315.005 129.746 311.919L129.99 311.838L130.234 311.919L130.478 312.081L146.015 306.397L152.929 289.749L188.477 287.557L194.252 291.942L197.181 294.216L200.353 296.571L206.129 300.956L207.756 301.443L210.196 302.174L226.872 307.29L227.034 307.209L227.278 307.29C236.145 310.132 243.954 315.654 249.567 323.125C250.136 323.856 250.624 324.587 251.113 325.318C252.495 327.348 254.285 330.434 256.4 334.413C257.295 336.038 258.19 337.824 259.247 339.692C259.816 340.829 264.941 356.745 269.985 373.068C274.621 388.335 279.177 403.927 279.746 407.906C279.827 408.637 279.99 409.368 280.071 410.099C280.722 414.728 281.454 419.357 282.024 423.904C283 430.644 283.895 437.141 284.789 442.907C284.627 443.232 284.627 443.313 284.627 443.394Z" fill="#3F3D56"/>
<path opacity="0.2" d="M246.964 384.6L240.049 357.964L233.949 380.945L246.964 384.6Z" fill="black"/>
<path d="M12.8525 384.275C13.5846 386.386 15.6182 387.848 17.8959 387.767L39.4523 387.198C41.73 387.117 43.6823 385.574 44.333 383.382L47.3428 350.817C48.4003 351.305 49.6205 351.548 50.7593 351.548C55.0706 351.467 58.4871 347.813 58.4058 343.509C58.3244 339.205 54.6639 335.794 50.3526 335.875C49.8645 335.875 49.3764 335.956 48.9697 336.037C47.9122 334.901 46.5294 334.332 44.9838 334.332L11.795 335.225C11.551 335.225 11.2256 335.307 10.9815 335.307C8.13446 335.794 6.34487 338.555 6.83294 341.316C6.91428 341.56 6.91428 341.803 6.99563 341.966L12.8525 384.275ZM47.9936 348.706L50.1899 340.91C50.4339 340.017 50.4339 339.042 50.1899 338.149C50.2712 338.149 50.3526 338.068 50.5153 338.068C53.6064 337.986 56.2094 340.504 56.2908 343.59C56.3721 346.676 53.9318 349.274 50.8407 349.356C49.7832 349.356 48.807 349.112 47.9936 348.706Z" fill="#2F2E41"/>
<path d="M11.063 335.307C11.7951 339.367 19.6856 342.209 29.2843 341.641C38.0696 341.235 45.2279 338.149 46.5295 334.495C46.0414 334.332 45.5533 334.251 45.0653 334.332L11.8764 335.225C11.6324 335.225 11.3884 335.225 11.063 335.307Z" fill="#3F3D56"/>
<path d="M30.9924 366.409C31.0738 366.409 31.0738 366.409 31.1551 366.328L35.8732 363.242C36.0358 363.08 36.1172 362.836 35.9545 362.674C35.9545 362.592 35.8732 362.592 35.8732 362.592L30.9924 359.425C30.8298 359.263 30.5857 359.344 30.423 359.507C30.2603 359.669 30.3417 359.913 30.5044 360.075L34.8157 362.917L30.6671 365.597C30.5044 365.76 30.423 366.003 30.5857 366.166C30.6671 366.328 30.8298 366.409 30.9924 366.409Z" fill="#1E1E6C"/>
<path d="M23.6715 366.734C23.9155 366.653 23.9969 366.49 23.9969 366.247C23.9969 366.166 23.9155 366.084 23.8342 366.003L19.5229 363.567L23.6715 360.481C23.8342 360.319 23.9155 360.075 23.7528 359.913C23.5901 359.75 23.3461 359.669 23.1834 359.831L18.5467 363.323C18.384 363.486 18.3027 363.729 18.4654 363.892C18.4654 363.973 18.5467 363.973 18.6281 363.973L23.5088 366.734C23.4274 366.734 23.5088 366.734 23.6715 366.734Z" fill="#1E1E6C"/>
<path d="M30.5858 369.089C30.5858 369.089 30.6671 369.089 30.6671 369.008C30.8298 368.927 30.9112 368.602 30.8298 368.439L24.1595 357.558C24.0782 357.395 23.7528 357.314 23.5901 357.395C23.4274 357.476 23.3461 357.72 23.4274 357.964L30.0977 368.845C30.1791 369.008 30.4231 369.089 30.5858 369.089Z" fill="#1E1E6C"/>
<path d="M638.641 444.206C638.153 444.45 637.665 444.693 637.177 444.937C624.324 451.352 614.074 455.007 600.002 458.986C598.782 445.749 597.643 422.442 596.585 408.069C596.26 404.333 596.016 401.166 595.69 398.973C595.609 397.755 595.365 396.618 594.958 395.563L595.04 398.973L595.202 408.069L595.935 460.123C578.445 464.752 560.468 467.35 542.409 467.838C541.433 467.838 540.539 467.838 539.644 467.919C539.318 467.919 538.993 467.919 538.668 467.919C537.691 467.919 536.634 467.919 535.658 467.919C516.623 467.919 497.588 465.645 479.123 461.097C479.53 448.023 479.936 424.96 480.262 408.069C480.343 404.739 480.424 401.653 480.506 398.973C480.668 393.126 480.831 388.985 480.994 387.604C480.831 387.848 480.75 388.092 480.668 388.416C479.936 391.908 479.367 395.481 479.123 399.055C478.879 401.734 478.553 404.82 478.309 408.15C476.764 425.691 475.218 449.566 473.591 459.717C463.911 457.118 454.394 453.789 445.121 449.972C440.24 447.942 435.441 445.749 430.723 443.394C431.617 437.547 432.512 430.969 433.488 424.229C434.22 418.951 435.034 413.51 435.766 408.15C436.986 399.867 478.472 310.619 488.234 307.452L488.478 307.371L488.64 307.452L505.316 302.336L507.756 301.605L509.383 301.118L515.159 296.733L518.25 294.378L521.178 292.104L526.954 287.719L562.502 289.911L569.416 306.559L584.953 312.244L585.197 312.081L585.441 312L585.685 312.081C595.446 315.167 603.825 321.582 609.519 330.109C610.251 331.246 611.227 332.789 612.285 334.576C613.18 336.119 614.156 337.905 615.213 339.854C616.678 342.615 618.386 345.782 620.094 349.193C620.501 349.924 620.908 350.736 621.233 351.467C621.965 352.929 622.697 354.39 623.429 355.852C625.137 359.263 626.927 362.917 628.717 366.572C630.262 369.739 631.808 376.316 633.353 384.6C634.655 391.502 635.875 399.623 637.095 408.15C638.722 419.113 637.014 432.269 638.478 442.42C638.478 442.988 638.559 443.638 638.641 444.206Z" fill="#3F3D56"/>
<path d="M534.438 281.791C557.26 281.791 575.761 263.321 575.761 240.537C575.761 217.754 557.26 199.284 534.438 199.284C511.615 199.284 493.114 217.754 493.114 240.537C493.114 263.321 511.615 281.791 534.438 281.791Z" fill="#FFB6B6"/>
<path opacity="0.2" d="M468.304 384.6L475.218 357.964L481.319 380.945L468.304 384.6Z" fill="black"/>
<path d="M652.225 367.221C649.785 401.247 652.307 416.189 638.641 444.206C626.195 450.297 613.261 455.25 600.002 458.986C598.619 459.392 597.236 459.717 595.853 460.123C578.364 464.752 560.387 467.35 542.328 467.838C541.352 467.838 540.457 467.838 539.562 467.919C539.237 467.919 538.912 467.919 538.586 467.919C537.61 467.919 536.553 467.919 535.576 467.919C516.542 467.919 497.507 465.645 479.042 461.097C477.171 460.61 475.381 460.123 473.51 459.636C463.83 457.037 454.313 453.707 445.039 449.891C440.159 447.86 435.359 445.668 430.641 443.313C429.584 442.744 428.526 442.257 427.469 441.689C422.1 432.187 419.009 420.737 418.927 406.851C422.588 383.057 643.928 346.676 652.225 367.221Z" fill="#2F2E41"/>
<path opacity="0.2" d="M652.225 373.068C652.388 370.957 652.469 368.764 652.632 366.49C644.416 345.945 423.076 382.326 419.334 406.201C419.334 408.394 419.416 410.505 419.578 412.616C428.608 389.066 638.885 354.472 652.225 373.068Z" fill="black"/>
<path d="M413.396 368.845L431.536 359.75L416.406 318.903L412.42 298.357C410.793 289.912 402.577 284.389 394.117 286.014C391.433 286.501 388.993 287.719 386.959 289.506C380.614 294.946 379.719 304.529 384.925 311.026L399.73 329.541L413.396 368.845Z" fill="#FFB6B6"/>
<path d="M431.536 352.198L407.295 364.298L425.679 421.793C428.364 430.157 435.278 436.573 443.819 438.603C454.475 441.12 465.62 436.491 471.232 427.071L519.958 343.671C527.117 331.733 523.456 316.223 511.661 308.752C499.622 301.199 483.76 304.691 476.195 316.71C475.706 317.522 475.218 318.334 474.812 319.146L445.039 382.407L431.536 352.198Z" fill="#3F3D56"/>
<path d="M170.418 278.948C195.532 278.948 215.89 258.624 215.89 233.553C215.89 208.482 195.532 188.158 170.418 188.158C145.305 188.158 124.946 208.482 124.946 233.553C124.946 258.624 145.305 278.948 170.418 278.948Z" fill="#A0616A"/>
<path d="M125.434 202.207C129.095 197.253 134.464 193.68 138.531 188.97C140.727 186.372 142.598 183.529 145.12 181.174C149.756 176.87 156.264 175.165 162.609 174.921C176.682 174.597 190.022 180.931 198.645 191.975C201.98 190.026 205.234 188.077 208.569 186.209C209.87 189.62 211.172 193.112 212.474 196.523C214.995 194.33 218.737 194.574 220.933 197.091C222.642 199.04 222.886 201.801 221.584 203.994C222.398 201.557 225.977 201.07 227.929 202.694C229.881 204.319 230.451 207.161 230.125 209.678C229.312 215.363 225.082 219.992 219.469 221.291C215.158 222.265 210.115 221.21 206.698 223.971C203.932 226.163 203.119 230.224 200.272 232.335C196.774 234.934 191.893 233.716 187.582 234.365C180.017 235.421 173.997 243.136 174.892 250.688C174.241 248.333 173.509 245.816 171.964 243.867C170.418 241.918 167.815 240.618 165.375 241.349C161.47 242.567 160.819 247.927 161.714 251.906C164.236 262.463 173.835 279.598 173.835 279.598C161.389 284.471 146.503 279.842 136.904 270.584C127.305 261.245 122.262 248.089 120.065 234.853C118.439 223.727 118.683 211.302 125.434 202.207Z" fill="#2F2E41"/>
<path d="M586.255 263.275C594.877 243.461 589.996 225.27 579.422 215.525C575.273 206.268 569.742 199.121 563.478 197.416C560.387 195.467 557.458 193.193 554.205 191.975C551.113 190.838 547.697 191 544.687 192.381L542.979 191.975C541.515 188.321 539.888 188.239 538.017 190.676C530.859 187.346 524.432 185.884 518.738 185.884C500.029 185.884 489.047 201.639 486.119 220.722L501.737 224.864L507.187 216.256L504.665 225.676L513.288 227.95C526.385 245.004 510.685 284.308 490.837 306.234C495.555 304.935 500.273 303.798 504.991 302.905L522.073 277.893L511.498 300.631C517.03 299.819 524.025 300.631 531.672 302.174C534.275 298.844 535.577 294.297 534.275 290.318C536.471 294.54 537.936 299.088 538.749 303.717C554.937 307.615 576.981 309.645 588.776 311.188C598.294 308.021 598.294 272.695 586.255 263.275Z" fill="#2F2E41"/>
<path d="M591.867 195.873C598.212 210.084 585.441 216.175 573.727 215.931C563.152 215.769 554.123 208.379 553.635 197.822C553.066 187.265 561.2 178.251 571.775 177.764C582.269 177.195 587.556 186.209 591.867 195.873Z" fill="#2F2E41"/>
<path d="M297.723 426.584L287.311 409.206L322.045 382.894L336.525 367.709C342.463 361.456 352.306 361.212 358.569 367.14C360.522 369.008 361.986 371.363 362.799 373.88C365.24 381.92 360.847 390.447 352.957 393.127L330.505 400.76L297.723 426.584Z" fill="#A0616A"/>
<path d="M305.288 426.016L289.019 439.577L284.627 443.232L284.139 443.638C283 444.206 281.861 444.775 280.722 445.262C277.306 446.886 273.808 448.429 270.31 449.891C261.037 453.789 251.519 457.037 241.839 459.636C239.968 460.123 238.179 460.61 236.308 461.097C235.169 461.341 234.03 461.666 232.891 461.909C232.159 462.072 231.427 462.234 230.695 462.397C229.8 462.559 228.905 462.803 228.092 462.965C227.197 463.128 226.221 463.371 225.326 463.534C220.364 458.824 217.517 452.165 217.517 445.343C217.517 445.099 217.517 444.937 217.517 444.693L220.12 377.859L221.259 348.219C221.666 334.251 233.054 323.207 247.045 323.207C247.859 323.207 248.591 323.207 249.404 323.288C249.974 324.019 250.462 324.75 250.95 325.48C252.333 327.511 254.122 330.597 256.237 334.576C257.132 336.2 258.027 337.986 259.084 339.854C259.654 340.991 264.779 356.908 269.822 373.231L267.626 390.284L263.64 420.981L279.909 410.343L291.378 402.79L292.761 405.064L296.259 410.992L303.092 422.361L305.288 426.016Z" fill="#3F3D56"/>
<path d="M296.34 406.932C296.34 408.312 296.34 409.693 296.259 410.992C296.096 414.728 295.69 418.382 294.958 422.036C293.819 428.127 291.866 434.055 289.019 439.577C288.613 440.308 288.206 441.039 287.799 441.77C286.742 442.338 285.684 442.826 284.627 443.394C284.464 443.475 284.301 443.556 284.057 443.638C279.502 445.911 274.947 448.023 270.229 449.972C260.955 453.87 251.438 457.118 241.758 459.717C239.887 460.204 238.097 460.691 236.226 461.179C232.647 462.072 228.987 462.884 225.245 463.615C210.196 466.538 194.984 468 179.61 468C178.634 468 177.576 468 176.6 468C176.275 468 175.95 468 175.706 468C174.811 468 173.916 468 172.94 467.919C154.881 467.432 136.904 464.833 119.415 460.204C118.032 459.798 116.649 459.473 115.266 459.067C102.007 455.332 88.9916 450.378 76.6271 444.287C62.9611 416.271 65.5642 401.247 63.0425 367.302C68.0859 354.634 153.986 363.567 220.12 377.859C238.097 381.757 254.529 385.98 267.544 390.365C280.966 394.832 290.728 399.461 294.551 403.684C295.446 404.577 296.096 405.714 296.34 406.932Z" fill="#2F2E41"/>
<path opacity="0.2" d="M63.0425 373.068C62.8798 370.957 62.7984 368.764 62.6357 366.49C70.8516 345.945 292.192 382.326 295.934 406.201C295.934 408.394 295.852 410.505 295.69 412.616C286.579 389.066 76.3831 354.472 63.0425 373.068Z" fill="black"/>
</g>
<defs>
<clipPath id="clip0_141_208">
<rect width="716" height="468" fill="white"/>
</clipPath>
</defs>
</svg>
