<svg width="1280" height="883" viewBox="0 0 1280 883" fill="none" xmlns="http://www.w3.org/2000/svg">
<path d="M1279.88 -63.1629H-6.97931V794.721H1279.88V-63.1629Z" fill="#615BF1"/>
<path d="M287.797 -616.326C287.797 -616.326 446.682 -253.27 217.792 203.124C-11.0972 659.518 314.907 996.838 753.469 999.583" stroke="white" stroke-miterlimit="10"/>
<path d="M394.178 -506.174C394.178 -506.174 557.18 -265.623 412.365 15.076C267.551 295.775 52.7309 608.045 643.314 890.117" stroke="white" stroke-miterlimit="10"/>
<path d="M473.448 1315.63C467.271 1309.45 -133.949 1109.39 33.5139 683.882C200.977 258.372 73.3208 66.5491 -286.314 -166.452" stroke="white" stroke-miterlimit="10"/>
<path d="M1601.08 -768C1601.08 -768 1613.09 -371.658 1230.47 -33.6517C847.839 304.354 1024.57 738.787 1430.53 904.873" stroke="white" stroke-miterlimit="10"/>
<path d="M1694.08 -568.628C1694.08 -568.628 1755.5 -284.497 1516.66 -78.2617C1277.82 127.974 961.769 337.64 1404.45 819.771" stroke="white" stroke-miterlimit="10"/>
<path d="M1216.74 883.254C1213.31 875.362 626.842 502.011 940.836 169.838C1254.83 -162.334 1208.16 -388.129 961.426 -738.489" stroke="white" stroke-miterlimit="10"/>
<path d="M1279.19 794.721H-7.66565V695.549C419.915 655.4 848.868 655.4 1279.19 695.549V794.721Z" fill="white"/>
<path d="M1054.08 440.243C1055.6 440.243 1056.82 439.014 1056.82 437.498C1056.82 435.982 1055.6 434.753 1054.08 434.753C1052.56 434.753 1051.33 435.982 1051.33 437.498C1051.33 439.014 1052.56 440.243 1054.08 440.243Z" fill="white"/>
<path d="M1089.08 440.243C1090.6 440.243 1091.83 439.014 1091.83 437.498C1091.83 435.982 1090.6 434.753 1089.08 434.753C1087.57 434.753 1086.34 435.982 1086.34 437.498C1086.34 439.014 1087.57 440.243 1089.08 440.243Z" fill="white"/>
<path d="M1124.08 440.243C1125.6 440.243 1126.83 439.014 1126.83 437.498C1126.83 435.982 1125.6 434.753 1124.08 434.753C1122.57 434.753 1121.34 435.982 1121.34 437.498C1121.34 439.014 1122.57 440.243 1124.08 440.243Z" fill="white"/>
<path d="M1159.43 440.243C1160.95 440.243 1162.18 439.014 1162.18 437.498C1162.18 435.982 1160.95 434.753 1159.43 434.753C1157.91 434.753 1156.68 435.982 1156.68 437.498C1156.68 439.014 1157.91 440.243 1159.43 440.243Z" fill="white"/>
<path d="M1197.18 437.498C1197.18 439.214 1195.81 440.243 1194.43 440.243C1193.06 440.243 1191.69 438.87 1191.69 437.498C1191.69 436.125 1193.06 434.753 1194.43 434.753C1195.81 434.753 1197.18 435.782 1197.18 437.498Z" fill="white"/>
<path d="M1054.08 470.784C1055.6 470.784 1056.82 469.555 1056.82 468.039C1056.82 466.522 1055.6 465.293 1054.08 465.293C1052.56 465.293 1051.33 466.522 1051.33 468.039C1051.33 469.555 1052.56 470.784 1054.08 470.784Z" fill="white"/>
<path d="M1089.08 470.784C1090.6 470.784 1091.83 469.555 1091.83 468.039C1091.83 466.522 1090.6 465.293 1089.08 465.293C1087.57 465.293 1086.34 466.522 1086.34 468.039C1086.34 469.555 1087.57 470.784 1089.08 470.784Z" fill="white"/>
<path d="M1124.08 470.784C1125.6 470.784 1126.83 469.555 1126.83 468.039C1126.83 466.522 1125.6 465.293 1124.08 465.293C1122.57 465.293 1121.34 466.522 1121.34 468.039C1121.34 469.555 1122.57 470.784 1124.08 470.784Z" fill="white"/>
<path d="M1159.43 470.784C1160.95 470.784 1162.18 469.555 1162.18 468.039C1162.18 466.522 1160.95 465.293 1159.43 465.293C1157.91 465.293 1156.68 466.522 1156.68 468.039C1156.68 469.555 1157.91 470.784 1159.43 470.784Z" fill="white"/>
<path d="M1197.18 468.039C1197.18 469.754 1195.81 470.784 1194.43 470.784C1193.06 470.784 1191.69 469.411 1191.69 468.039C1191.69 466.666 1193.06 465.293 1194.43 465.293C1195.81 465.293 1197.18 466.666 1197.18 468.039Z" fill="white"/>
<path d="M1054.08 501.668C1055.6 501.668 1056.82 500.439 1056.82 498.922C1056.82 497.406 1055.6 496.177 1054.08 496.177C1052.56 496.177 1051.33 497.406 1051.33 498.922C1051.33 500.439 1052.56 501.668 1054.08 501.668Z" fill="white"/>
<path d="M1089.08 501.668C1090.6 501.668 1091.83 500.439 1091.83 498.922C1091.83 497.406 1090.6 496.177 1089.08 496.177C1087.57 496.177 1086.34 497.406 1086.34 498.922C1086.34 500.439 1087.57 501.668 1089.08 501.668Z" fill="white"/>
<path d="M1124.08 501.668C1125.6 501.668 1126.83 500.439 1126.83 498.922C1126.83 497.406 1125.6 496.177 1124.08 496.177C1122.57 496.177 1121.34 497.406 1121.34 498.922C1121.34 500.439 1122.57 501.668 1124.08 501.668Z" fill="white"/>
<path d="M1159.43 501.668C1160.95 501.668 1162.18 500.439 1162.18 498.922C1162.18 497.406 1160.95 496.177 1159.43 496.177C1157.91 496.177 1156.68 497.406 1156.68 498.922C1156.68 500.439 1157.91 501.668 1159.43 501.668Z" fill="white"/>
<path d="M1197.18 498.922C1197.18 500.638 1195.81 501.668 1194.43 501.668C1193.06 501.668 1191.69 500.295 1191.69 498.922C1191.69 497.55 1193.06 496.177 1194.43 496.177C1195.81 496.177 1197.18 497.207 1197.18 498.922Z" fill="white"/>
<path d="M1054.08 532.551C1055.6 532.551 1056.82 531.322 1056.82 529.806C1056.82 528.29 1055.6 527.061 1054.08 527.061C1052.56 527.061 1051.33 528.29 1051.33 529.806C1051.33 531.322 1052.56 532.551 1054.08 532.551Z" fill="white"/>
<path d="M1089.08 532.551C1090.6 532.551 1091.83 531.322 1091.83 529.806C1091.83 528.29 1090.6 527.061 1089.08 527.061C1087.57 527.061 1086.34 528.29 1086.34 529.806C1086.34 531.322 1087.57 532.551 1089.08 532.551Z" fill="white"/>
<path d="M1124.08 532.551C1125.6 532.551 1126.83 531.322 1126.83 529.806C1126.83 528.29 1125.6 527.061 1124.08 527.061C1122.57 527.061 1121.34 528.29 1121.34 529.806C1121.34 531.322 1122.57 532.551 1124.08 532.551Z" fill="white"/>
<path d="M1159.43 532.551C1160.95 532.551 1162.18 531.322 1162.18 529.806C1162.18 528.29 1160.95 527.061 1159.43 527.061C1157.91 527.061 1156.68 528.29 1156.68 529.806C1156.68 531.322 1157.91 532.551 1159.43 532.551Z" fill="white"/>
<path d="M1197.18 529.806C1197.18 531.522 1195.81 532.551 1194.43 532.551C1193.06 532.551 1191.69 531.179 1191.69 529.806C1191.69 528.09 1193.06 527.061 1194.43 527.061C1195.81 527.061 1197.18 528.09 1197.18 529.806Z" fill="white"/>
<path d="M1056.82 560.69C1056.82 562.406 1055.45 563.435 1054.08 563.435C1052.36 563.435 1051.33 562.063 1051.33 560.69C1051.33 558.974 1052.71 557.945 1054.08 557.945C1055.45 557.602 1056.82 558.974 1056.82 560.69Z" fill="white"/>
<path d="M1091.83 560.69C1091.83 562.406 1090.45 563.435 1089.08 563.435C1087.71 563.435 1086.34 562.063 1086.34 560.69C1086.34 558.974 1087.71 557.945 1089.08 557.945C1090.45 557.945 1091.83 558.974 1091.83 560.69Z" fill="white"/>
<path d="M1127.17 560.69C1127.17 562.406 1125.8 563.435 1124.43 563.435C1123.05 563.435 1121.68 562.063 1121.68 560.69C1121.68 558.974 1123.05 557.945 1124.43 557.945C1125.8 557.945 1127.17 558.974 1127.17 560.69Z" fill="white"/>
<path d="M1162.18 560.69C1162.18 562.406 1160.8 563.435 1159.43 563.435C1158.06 563.435 1156.68 562.063 1156.68 560.69C1156.68 558.974 1158.06 557.945 1159.43 557.945C1160.8 557.945 1162.18 558.974 1162.18 560.69Z" fill="white"/>
<path d="M1197.18 560.69C1197.18 562.406 1195.81 563.435 1194.43 563.435C1193.06 563.435 1191.69 562.063 1191.69 560.69C1191.69 558.974 1193.06 557.945 1194.43 557.945C1195.81 557.945 1197.18 558.974 1197.18 560.69Z" fill="white"/>
<path d="M194.114 234.351C194.114 235.381 193.428 236.067 192.398 236.067C191.369 236.067 190.682 235.381 190.682 234.351C190.682 233.322 191.369 232.635 192.398 232.635C193.428 232.635 194.114 233.665 194.114 234.351Z" fill="white"/>
<path d="M216.763 234.351C216.763 235.381 216.076 236.067 215.047 236.067C214.017 236.067 213.331 235.381 213.331 234.351C213.331 233.322 214.017 232.635 215.047 232.635C215.733 232.635 216.763 233.665 216.763 234.351Z" fill="white"/>
<path d="M239.068 234.351C239.068 235.381 238.382 236.067 237.352 236.067C236.323 236.067 235.637 235.381 235.637 234.351C235.637 233.322 236.323 232.635 237.352 232.635C238.382 232.635 239.068 233.665 239.068 234.351Z" fill="white"/>
<path d="M261.717 234.351C261.717 235.381 261.031 236.067 260.001 236.067C258.972 236.067 258.285 235.381 258.285 234.351C258.285 233.322 258.972 232.635 260.001 232.635C260.688 232.635 261.717 233.665 261.717 234.351Z" fill="white"/>
<path d="M282.307 236.067C283.254 236.067 284.023 235.299 284.023 234.351C284.023 233.404 283.254 232.635 282.307 232.635C281.359 232.635 280.591 233.404 280.591 234.351C280.591 235.299 281.359 236.067 282.307 236.067Z" fill="white"/>
<path d="M194.114 254.254C194.114 255.283 193.428 255.97 192.398 255.97C191.369 255.97 190.682 255.283 190.682 254.254C190.682 253.225 191.369 252.538 192.398 252.538C193.428 252.538 194.114 253.225 194.114 254.254Z" fill="white"/>
<path d="M216.763 254.254C216.763 255.283 216.076 255.97 215.047 255.97C214.017 255.97 213.331 255.283 213.331 254.254C213.331 253.225 214.017 252.538 215.047 252.538C215.733 252.538 216.763 253.225 216.763 254.254Z" fill="white"/>
<path d="M239.068 254.254C239.068 255.283 238.382 255.97 237.352 255.97C236.323 255.97 235.637 255.283 235.637 254.254C235.637 253.225 236.323 252.538 237.352 252.538C238.382 252.538 239.068 253.225 239.068 254.254Z" fill="white"/>
<path d="M261.717 254.254C261.717 255.283 261.031 255.97 260.001 255.97C258.972 255.97 258.285 255.283 258.285 254.254C258.285 253.225 258.972 252.538 260.001 252.538C260.688 252.538 261.717 253.225 261.717 254.254Z" fill="white"/>
<path d="M282.307 255.97C283.254 255.97 284.023 255.202 284.023 254.254C284.023 253.306 283.254 252.538 282.307 252.538C281.359 252.538 280.591 253.306 280.591 254.254C280.591 255.202 281.359 255.97 282.307 255.97Z" fill="white"/>
<path d="M194.114 273.814C194.114 274.843 193.428 275.529 192.398 275.529C191.369 275.529 190.682 274.843 190.682 273.814C190.682 272.784 191.369 272.098 192.398 272.098C193.428 272.098 194.114 272.784 194.114 273.814Z" fill="white"/>
<path d="M216.763 273.814C216.763 274.843 216.076 275.529 215.047 275.529C214.017 275.529 213.331 274.843 213.331 273.814C213.331 272.784 214.017 272.098 215.047 272.098C215.733 272.098 216.763 272.784 216.763 273.814Z" fill="white"/>
<path d="M239.068 273.814C239.068 274.843 238.382 275.529 237.352 275.529C236.323 275.529 235.637 274.843 235.637 273.814C235.637 272.784 236.323 272.098 237.352 272.098C238.382 272.098 239.068 272.784 239.068 273.814Z" fill="white"/>
<path d="M261.717 273.814C261.717 274.843 261.031 275.529 260.001 275.529C258.972 275.529 258.285 274.843 258.285 273.814C258.285 272.784 258.972 272.098 260.001 272.098C260.688 272.098 261.717 272.784 261.717 273.814Z" fill="white"/>
<path d="M284.023 273.814C284.023 274.843 283.336 275.529 282.307 275.529C281.277 275.529 280.591 274.843 280.591 273.814C280.591 272.784 281.277 272.098 282.307 272.098C283.336 272.098 284.023 272.784 284.023 273.814Z" fill="white"/>
<path d="M194.114 293.717C194.114 294.746 193.428 295.432 192.398 295.432C191.369 295.432 190.682 294.746 190.682 293.717C190.682 292.687 191.369 292.001 192.398 292.001C193.428 292.001 194.114 292.687 194.114 293.717Z" fill="white"/>
<path d="M216.763 293.717C216.763 294.746 216.076 295.432 215.047 295.432C214.017 295.432 213.331 294.746 213.331 293.717C213.331 292.687 214.017 292.001 215.047 292.001C215.733 292.001 216.763 292.687 216.763 293.717Z" fill="white"/>
<path d="M239.068 293.717C239.068 294.746 238.382 295.432 237.352 295.432C236.323 295.432 235.637 294.746 235.637 293.717C235.637 292.687 236.323 292.001 237.352 292.001C238.382 292.001 239.068 292.687 239.068 293.717Z" fill="white"/>
<path d="M261.717 293.717C261.717 294.746 261.031 295.432 260.001 295.432C258.972 295.432 258.285 294.746 258.285 293.717C258.285 292.687 258.972 292.001 260.001 292.001C260.688 292.001 261.717 292.687 261.717 293.717Z" fill="white"/>
<path d="M284.023 293.717C284.023 294.746 283.336 295.432 282.307 295.432C281.277 295.432 280.591 294.746 280.591 293.717C280.591 292.687 281.277 292.001 282.307 292.001C283.336 292.001 284.023 292.687 284.023 293.717Z" fill="white"/>
<path d="M194.114 313.276C194.114 314.306 193.428 314.992 192.398 314.992C191.369 314.992 190.682 314.306 190.682 313.276C190.682 312.247 191.369 311.561 192.398 311.561C193.428 311.561 194.114 312.247 194.114 313.276Z" fill="white"/>
<path d="M216.763 313.276C216.763 314.306 216.076 314.992 215.047 314.992C214.017 314.992 213.331 314.306 213.331 313.276C213.331 312.247 214.017 311.561 215.047 311.561C215.733 311.561 216.763 312.247 216.763 313.276Z" fill="white"/>
<path d="M239.068 313.276C239.068 314.306 238.382 314.992 237.352 314.992C236.323 314.992 235.637 314.306 235.637 313.276C235.637 312.247 236.323 311.561 237.352 311.561C238.382 311.561 239.068 312.247 239.068 313.276Z" fill="white"/>
<path d="M261.717 313.276C261.717 314.306 261.031 314.992 260.001 314.992C258.972 314.992 258.285 314.306 258.285 313.276C258.285 312.247 258.972 311.561 260.001 311.561C260.688 311.561 261.717 312.247 261.717 313.276Z" fill="white"/>
<path d="M282.307 314.992C283.254 314.992 284.023 314.224 284.023 313.276C284.023 312.329 283.254 311.561 282.307 311.561C281.359 311.561 280.591 312.329 280.591 313.276C280.591 314.224 281.359 314.992 282.307 314.992Z" fill="white"/>
</svg>
